<mxfile host="app.diagrams.net" agent="Mozilla/5.0 (Windows NT 10.0; Win64; x64) AppleWebKit/537.36 (KHTML, like Gecko) Chrome/129.0.0.0 Safari/537.36" version="24.7.14">
  <diagram name="Страница — 1" id="twvodf1B2NZDEoyqNQy1">
    <mxGraphModel dx="1500" dy="807" grid="1" gridSize="10" guides="1" tooltips="1" connect="1" arrows="1" fold="1" page="1" pageScale="1" pageWidth="827" pageHeight="1169" math="0" shadow="0">
      <root>
        <mxCell id="0" />
        <mxCell id="1" parent="0" />
        <mxCell id="rr-AAdb_MnOpNJ91MEzJ-1" value="&lt;div&gt;Авторизированный пользователь&lt;/div&gt;" style="shape=umlActor;verticalLabelPosition=bottom;verticalAlign=top;html=1;outlineConnect=0;" parent="1" vertex="1">
          <mxGeometry x="90" y="230" width="30" height="60" as="geometry" />
        </mxCell>
        <mxCell id="rr-AAdb_MnOpNJ91MEzJ-2" value="Автор&lt;div&gt;сообщества&lt;/div&gt;" style="shape=umlActor;verticalLabelPosition=bottom;verticalAlign=top;html=1;outlineConnect=0;" parent="1" vertex="1">
          <mxGeometry x="710" y="100" width="30" height="60" as="geometry" />
        </mxCell>
        <mxCell id="rr-AAdb_MnOpNJ91MEzJ-4" value="Модератор&lt;div&gt;сообщества&lt;/div&gt;" style="shape=umlActor;verticalLabelPosition=bottom;verticalAlign=top;html=1;outlineConnect=0;" parent="1" vertex="1">
          <mxGeometry x="710" y="240" width="30" height="60" as="geometry" />
        </mxCell>
        <mxCell id="rr-AAdb_MnOpNJ91MEzJ-5" value="&lt;div&gt;&lt;div&gt;Владелец&lt;/div&gt;&lt;/div&gt;&lt;div&gt;сообщества&lt;/div&gt;" style="shape=umlActor;verticalLabelPosition=bottom;verticalAlign=top;html=1;outlineConnect=0;" parent="1" vertex="1">
          <mxGeometry x="710" y="410" width="30" height="60" as="geometry" />
        </mxCell>
        <mxCell id="rr-AAdb_MnOpNJ91MEzJ-6" value="Администратор&lt;div&gt;приложения&lt;/div&gt;" style="shape=umlActor;verticalLabelPosition=bottom;verticalAlign=top;html=1;outlineConnect=0;align=center;" parent="1" vertex="1">
          <mxGeometry x="90" y="420" width="30" height="60" as="geometry" />
        </mxCell>
        <mxCell id="rr-AAdb_MnOpNJ91MEzJ-10" value="EzioNews" style="rounded=0;whiteSpace=wrap;html=1;labelPosition=center;verticalLabelPosition=top;align=center;verticalAlign=bottom;" parent="1" vertex="1">
          <mxGeometry x="220" y="30" width="390" height="650" as="geometry" />
        </mxCell>
        <mxCell id="rr-AAdb_MnOpNJ91MEzJ-14" value="Просматривать статьи" style="ellipse;whiteSpace=wrap;html=1;" parent="1" vertex="1">
          <mxGeometry x="277" y="50" width="100" height="60" as="geometry" />
        </mxCell>
        <mxCell id="rr-AAdb_MnOpNJ91MEzJ-15" value="Опубликовать&lt;div&gt;статью&lt;/div&gt;" style="ellipse;whiteSpace=wrap;html=1;" parent="1" vertex="1">
          <mxGeometry x="453" y="200" width="110" height="60" as="geometry" />
        </mxCell>
        <mxCell id="rr-AAdb_MnOpNJ91MEzJ-16" value="Редактировать&lt;div&gt;статью&lt;/div&gt;" style="ellipse;whiteSpace=wrap;html=1;" parent="1" vertex="1">
          <mxGeometry x="458" y="120" width="100" height="65" as="geometry" />
        </mxCell>
        <mxCell id="rr-AAdb_MnOpNJ91MEzJ-17" value="Поиск статей" style="ellipse;whiteSpace=wrap;html=1;" parent="1" vertex="1">
          <mxGeometry x="279" y="120" width="96" height="60" as="geometry" />
        </mxCell>
        <mxCell id="rr-AAdb_MnOpNJ91MEzJ-19" value="Удалить&lt;div&gt;статью&lt;/div&gt;" style="ellipse;whiteSpace=wrap;html=1;" parent="1" vertex="1">
          <mxGeometry x="458" y="275" width="100" height="60" as="geometry" />
        </mxCell>
        <mxCell id="rr-AAdb_MnOpNJ91MEzJ-21" value="Создать статью" style="ellipse;whiteSpace=wrap;html=1;" parent="1" vertex="1">
          <mxGeometry x="458" y="50" width="100" height="60" as="geometry" />
        </mxCell>
        <mxCell id="rr-AAdb_MnOpNJ91MEzJ-47" value="" style="edgeStyle=orthogonalEdgeStyle;rounded=0;orthogonalLoop=1;jettySize=auto;html=1;dashed=1;dashPattern=12 12;" parent="1" source="rr-AAdb_MnOpNJ91MEzJ-22" target="rr-AAdb_MnOpNJ91MEzJ-44" edge="1">
          <mxGeometry relative="1" as="geometry" />
        </mxCell>
        <mxCell id="rr-AAdb_MnOpNJ91MEzJ-48" value="&amp;lt;&amp;lt;includes&amp;gt;&amp;gt;" style="edgeLabel;html=1;align=center;verticalAlign=middle;resizable=0;points=[];" parent="rr-AAdb_MnOpNJ91MEzJ-47" vertex="1" connectable="0">
          <mxGeometry x="-0.0455" y="-1" relative="1" as="geometry">
            <mxPoint as="offset" />
          </mxGeometry>
        </mxCell>
        <mxCell id="rr-AAdb_MnOpNJ91MEzJ-22" value="Создать&lt;div&gt;сообщество&lt;/div&gt;" style="ellipse;whiteSpace=wrap;html=1;" parent="1" vertex="1">
          <mxGeometry x="282" y="610" width="100" height="60" as="geometry" />
        </mxCell>
        <mxCell id="rr-AAdb_MnOpNJ91MEzJ-23" value="Удалять&lt;div&gt;сообщество&lt;/div&gt;" style="ellipse;whiteSpace=wrap;html=1;" parent="1" vertex="1">
          <mxGeometry x="370" y="550" width="100" height="60" as="geometry" />
        </mxCell>
        <mxCell id="rr-AAdb_MnOpNJ91MEzJ-24" value="Управление&lt;div&gt;сообщество&lt;/div&gt;" style="ellipse;whiteSpace=wrap;html=1;" parent="1" vertex="1">
          <mxGeometry x="365" y="420" width="100" height="60" as="geometry" />
        </mxCell>
        <mxCell id="rr-AAdb_MnOpNJ91MEzJ-25" value="" style="endArrow=none;html=1;rounded=0;exitX=0.5;exitY=0.5;exitDx=0;exitDy=0;exitPerimeter=0;entryX=0;entryY=0.5;entryDx=0;entryDy=0;" parent="1" source="rr-AAdb_MnOpNJ91MEzJ-1" target="rr-AAdb_MnOpNJ91MEzJ-14" edge="1">
          <mxGeometry width="50" height="50" relative="1" as="geometry">
            <mxPoint x="390" y="320" as="sourcePoint" />
            <mxPoint x="440" y="270" as="targetPoint" />
          </mxGeometry>
        </mxCell>
        <mxCell id="rr-AAdb_MnOpNJ91MEzJ-29" value="" style="endArrow=none;html=1;rounded=0;entryX=0;entryY=0.5;entryDx=0;entryDy=0;exitX=0.5;exitY=0.5;exitDx=0;exitDy=0;exitPerimeter=0;" parent="1" source="rr-AAdb_MnOpNJ91MEzJ-1" target="rr-AAdb_MnOpNJ91MEzJ-17" edge="1">
          <mxGeometry width="50" height="50" relative="1" as="geometry">
            <mxPoint x="390" y="320" as="sourcePoint" />
            <mxPoint x="440" y="270" as="targetPoint" />
          </mxGeometry>
        </mxCell>
        <mxCell id="rr-AAdb_MnOpNJ91MEzJ-30" value="" style="endArrow=none;html=1;rounded=0;entryX=1;entryY=0.5;entryDx=0;entryDy=0;exitX=0.5;exitY=0.5;exitDx=0;exitDy=0;exitPerimeter=0;" parent="1" source="rr-AAdb_MnOpNJ91MEzJ-4" target="rr-AAdb_MnOpNJ91MEzJ-15" edge="1">
          <mxGeometry width="50" height="50" relative="1" as="geometry">
            <mxPoint x="390" y="320" as="sourcePoint" />
            <mxPoint x="440" y="270" as="targetPoint" />
          </mxGeometry>
        </mxCell>
        <mxCell id="rr-AAdb_MnOpNJ91MEzJ-31" value="" style="endArrow=none;html=1;rounded=0;entryX=1;entryY=0.5;entryDx=0;entryDy=0;exitX=0.5;exitY=0.5;exitDx=0;exitDy=0;exitPerimeter=0;" parent="1" source="rr-AAdb_MnOpNJ91MEzJ-4" target="rr-AAdb_MnOpNJ91MEzJ-19" edge="1">
          <mxGeometry width="50" height="50" relative="1" as="geometry">
            <mxPoint x="390" y="320" as="sourcePoint" />
            <mxPoint x="440" y="270" as="targetPoint" />
          </mxGeometry>
        </mxCell>
        <mxCell id="rr-AAdb_MnOpNJ91MEzJ-33" value="" style="endArrow=none;html=1;rounded=0;exitX=0.5;exitY=0.5;exitDx=0;exitDy=0;exitPerimeter=0;entryX=1;entryY=0.5;entryDx=0;entryDy=0;" parent="1" source="rr-AAdb_MnOpNJ91MEzJ-2" target="rr-AAdb_MnOpNJ91MEzJ-21" edge="1">
          <mxGeometry width="50" height="50" relative="1" as="geometry">
            <mxPoint x="390" y="320" as="sourcePoint" />
            <mxPoint x="440" y="270" as="targetPoint" />
          </mxGeometry>
        </mxCell>
        <mxCell id="rr-AAdb_MnOpNJ91MEzJ-36" value="" style="endArrow=none;html=1;rounded=0;entryX=0.5;entryY=0.5;entryDx=0;entryDy=0;entryPerimeter=0;exitX=0;exitY=0.5;exitDx=0;exitDy=0;" parent="1" source="rr-AAdb_MnOpNJ91MEzJ-23" target="rr-AAdb_MnOpNJ91MEzJ-6" edge="1">
          <mxGeometry width="50" height="50" relative="1" as="geometry">
            <mxPoint x="390" y="420" as="sourcePoint" />
            <mxPoint x="440" y="370" as="targetPoint" />
          </mxGeometry>
        </mxCell>
        <mxCell id="rr-AAdb_MnOpNJ91MEzJ-37" value="" style="endArrow=none;html=1;rounded=0;entryX=0.5;entryY=0.5;entryDx=0;entryDy=0;entryPerimeter=0;exitX=1;exitY=0.5;exitDx=0;exitDy=0;" parent="1" source="rr-AAdb_MnOpNJ91MEzJ-23" target="rr-AAdb_MnOpNJ91MEzJ-5" edge="1">
          <mxGeometry width="50" height="50" relative="1" as="geometry">
            <mxPoint x="470" y="570" as="sourcePoint" />
            <mxPoint x="440" y="370" as="targetPoint" />
          </mxGeometry>
        </mxCell>
        <mxCell id="rr-AAdb_MnOpNJ91MEzJ-39" value="Назначить&lt;div&gt;авторов&lt;/div&gt;&lt;div&gt;сообщества&lt;/div&gt;" style="ellipse;whiteSpace=wrap;html=1;" parent="1" vertex="1">
          <mxGeometry x="455" y="355" width="106" height="65" as="geometry" />
        </mxCell>
        <mxCell id="rr-AAdb_MnOpNJ91MEzJ-40" value="Назначить&lt;div&gt;модератора&lt;/div&gt;&lt;div&gt;сообщества&lt;/div&gt;" style="ellipse;whiteSpace=wrap;html=1;" parent="1" vertex="1">
          <mxGeometry x="458" y="465" width="100" height="60" as="geometry" />
        </mxCell>
        <mxCell id="rr-AAdb_MnOpNJ91MEzJ-41" value="" style="endArrow=none;html=1;rounded=0;entryX=1;entryY=0.5;entryDx=0;entryDy=0;exitX=0.5;exitY=0.5;exitDx=0;exitDy=0;exitPerimeter=0;" parent="1" source="rr-AAdb_MnOpNJ91MEzJ-5" target="rr-AAdb_MnOpNJ91MEzJ-40" edge="1">
          <mxGeometry width="50" height="50" relative="1" as="geometry">
            <mxPoint x="390" y="520" as="sourcePoint" />
            <mxPoint x="440" y="470" as="targetPoint" />
          </mxGeometry>
        </mxCell>
        <mxCell id="rr-AAdb_MnOpNJ91MEzJ-42" value="" style="endArrow=none;html=1;rounded=0;entryX=1;entryY=0.5;entryDx=0;entryDy=0;exitX=0.5;exitY=0.5;exitDx=0;exitDy=0;exitPerimeter=0;" parent="1" source="rr-AAdb_MnOpNJ91MEzJ-5" target="rr-AAdb_MnOpNJ91MEzJ-39" edge="1">
          <mxGeometry width="50" height="50" relative="1" as="geometry">
            <mxPoint x="390" y="520" as="sourcePoint" />
            <mxPoint x="440" y="470" as="targetPoint" />
          </mxGeometry>
        </mxCell>
        <mxCell id="rr-AAdb_MnOpNJ91MEzJ-43" value="" style="endArrow=none;html=1;rounded=0;entryX=0;entryY=0.5;entryDx=0;entryDy=0;exitX=0.5;exitY=0.5;exitDx=0;exitDy=0;exitPerimeter=0;" parent="1" source="rr-AAdb_MnOpNJ91MEzJ-6" target="rr-AAdb_MnOpNJ91MEzJ-22" edge="1">
          <mxGeometry width="50" height="50" relative="1" as="geometry">
            <mxPoint x="390" y="520" as="sourcePoint" />
            <mxPoint x="440" y="470" as="targetPoint" />
          </mxGeometry>
        </mxCell>
        <mxCell id="rr-AAdb_MnOpNJ91MEzJ-44" value="Назначить&lt;div&gt;владельца&lt;/div&gt;&lt;div&gt;сообщества&lt;/div&gt;" style="ellipse;whiteSpace=wrap;html=1;" parent="1" vertex="1">
          <mxGeometry x="470" y="612.5" width="110" height="55" as="geometry" />
        </mxCell>
        <mxCell id="rr-AAdb_MnOpNJ91MEzJ-53" value="" style="endArrow=none;html=1;rounded=0;entryX=0.5;entryY=0.5;entryDx=0;entryDy=0;entryPerimeter=0;exitX=1;exitY=0.5;exitDx=0;exitDy=0;" parent="1" source="rr-AAdb_MnOpNJ91MEzJ-16" target="rr-AAdb_MnOpNJ91MEzJ-2" edge="1">
          <mxGeometry width="50" height="50" relative="1" as="geometry">
            <mxPoint x="350" y="300" as="sourcePoint" />
            <mxPoint x="685" y="110" as="targetPoint" />
          </mxGeometry>
        </mxCell>
        <mxCell id="rr-AAdb_MnOpNJ91MEzJ-54" value="" style="endArrow=none;html=1;rounded=0;exitX=0.5;exitY=0.5;exitDx=0;exitDy=0;exitPerimeter=0;entryX=0;entryY=0.5;entryDx=0;entryDy=0;" parent="1" source="rr-AAdb_MnOpNJ91MEzJ-6" target="rr-AAdb_MnOpNJ91MEzJ-24" edge="1">
          <mxGeometry width="50" height="50" relative="1" as="geometry">
            <mxPoint x="390" y="520" as="sourcePoint" />
            <mxPoint x="440" y="470" as="targetPoint" />
          </mxGeometry>
        </mxCell>
        <mxCell id="rr-AAdb_MnOpNJ91MEzJ-55" value="" style="endArrow=none;html=1;rounded=0;exitX=1;exitY=0.5;exitDx=0;exitDy=0;entryX=0.5;entryY=0.5;entryDx=0;entryDy=0;entryPerimeter=0;" parent="1" source="rr-AAdb_MnOpNJ91MEzJ-24" target="rr-AAdb_MnOpNJ91MEzJ-5" edge="1">
          <mxGeometry width="50" height="50" relative="1" as="geometry">
            <mxPoint x="390" y="520" as="sourcePoint" />
            <mxPoint x="440" y="470" as="targetPoint" />
          </mxGeometry>
        </mxCell>
        <mxCell id="GAyMugdZw4S2Gn2cohql-2" value="Неавторизированный&lt;div&gt;пользователь&lt;/div&gt;" style="shape=umlActor;verticalLabelPosition=bottom;verticalAlign=top;html=1;outlineConnect=0;" vertex="1" parent="1">
          <mxGeometry x="90" y="80" width="30" height="60" as="geometry" />
        </mxCell>
        <mxCell id="GAyMugdZw4S2Gn2cohql-3" value="" style="endArrow=none;html=1;rounded=0;exitX=0.5;exitY=0.5;exitDx=0;exitDy=0;exitPerimeter=0;" edge="1" parent="1" source="rr-AAdb_MnOpNJ91MEzJ-4" target="rr-AAdb_MnOpNJ91MEzJ-16">
          <mxGeometry width="50" height="50" relative="1" as="geometry">
            <mxPoint x="290" y="330" as="sourcePoint" />
            <mxPoint x="340" y="280" as="targetPoint" />
          </mxGeometry>
        </mxCell>
        <mxCell id="GAyMugdZw4S2Gn2cohql-4" value="" style="endArrow=none;html=1;rounded=0;exitX=0.5;exitY=0.5;exitDx=0;exitDy=0;exitPerimeter=0;entryX=0;entryY=0.5;entryDx=0;entryDy=0;" edge="1" parent="1" source="GAyMugdZw4S2Gn2cohql-2" target="rr-AAdb_MnOpNJ91MEzJ-14">
          <mxGeometry width="50" height="50" relative="1" as="geometry">
            <mxPoint x="290" y="330" as="sourcePoint" />
            <mxPoint x="340" y="280" as="targetPoint" />
          </mxGeometry>
        </mxCell>
        <mxCell id="GAyMugdZw4S2Gn2cohql-5" value="" style="endArrow=none;html=1;rounded=0;exitX=0.5;exitY=0.5;exitDx=0;exitDy=0;exitPerimeter=0;entryX=0;entryY=0.5;entryDx=0;entryDy=0;" edge="1" parent="1" source="GAyMugdZw4S2Gn2cohql-2" target="rr-AAdb_MnOpNJ91MEzJ-17">
          <mxGeometry width="50" height="50" relative="1" as="geometry">
            <mxPoint x="290" y="330" as="sourcePoint" />
            <mxPoint x="340" y="280" as="targetPoint" />
          </mxGeometry>
        </mxCell>
        <mxCell id="GAyMugdZw4S2Gn2cohql-6" value="Комментировать&lt;div&gt;статьи&lt;/div&gt;" style="ellipse;whiteSpace=wrap;html=1;" vertex="1" parent="1">
          <mxGeometry x="267" y="195" width="120" height="60" as="geometry" />
        </mxCell>
        <mxCell id="GAyMugdZw4S2Gn2cohql-7" value="" style="endArrow=none;html=1;rounded=0;exitX=0.5;exitY=0.5;exitDx=0;exitDy=0;exitPerimeter=0;entryX=0;entryY=0.5;entryDx=0;entryDy=0;" edge="1" parent="1" source="rr-AAdb_MnOpNJ91MEzJ-1" target="GAyMugdZw4S2Gn2cohql-6">
          <mxGeometry width="50" height="50" relative="1" as="geometry">
            <mxPoint x="93.82" y="280.61" as="sourcePoint" />
            <mxPoint x="282.00019484660544" y="279.39679656440364" as="targetPoint" />
          </mxGeometry>
        </mxCell>
        <mxCell id="GAyMugdZw4S2Gn2cohql-8" value="Банить пользователей" style="ellipse;whiteSpace=wrap;html=1;" vertex="1" parent="1">
          <mxGeometry x="277" y="470" width="100" height="55" as="geometry" />
        </mxCell>
        <mxCell id="GAyMugdZw4S2Gn2cohql-9" value="" style="endArrow=none;html=1;rounded=0;exitX=0.5;exitY=0.5;exitDx=0;exitDy=0;exitPerimeter=0;entryX=0;entryY=0.5;entryDx=0;entryDy=0;" edge="1" parent="1" source="rr-AAdb_MnOpNJ91MEzJ-6" target="GAyMugdZw4S2Gn2cohql-8">
          <mxGeometry width="50" height="50" relative="1" as="geometry">
            <mxPoint x="290" y="430" as="sourcePoint" />
            <mxPoint x="340" y="380" as="targetPoint" />
          </mxGeometry>
        </mxCell>
        <mxCell id="GAyMugdZw4S2Gn2cohql-10" value="" style="endArrow=none;html=1;rounded=0;exitX=0.5;exitY=0.5;exitDx=0;exitDy=0;exitPerimeter=0;entryX=0;entryY=0.5;entryDx=0;entryDy=0;" edge="1" parent="1" source="rr-AAdb_MnOpNJ91MEzJ-6" target="rr-AAdb_MnOpNJ91MEzJ-19">
          <mxGeometry width="50" height="50" relative="1" as="geometry">
            <mxPoint x="290" y="330" as="sourcePoint" />
            <mxPoint x="340" y="280" as="targetPoint" />
          </mxGeometry>
        </mxCell>
        <mxCell id="GAyMugdZw4S2Gn2cohql-12" value="Кинуть запрос на создание сообщества" style="ellipse;whiteSpace=wrap;html=1;" vertex="1" parent="1">
          <mxGeometry x="272" y="270" width="110" height="70" as="geometry" />
        </mxCell>
        <mxCell id="GAyMugdZw4S2Gn2cohql-16" value="" style="endArrow=none;html=1;rounded=0;exitX=0.5;exitY=0.5;exitDx=0;exitDy=0;exitPerimeter=0;entryX=0;entryY=0.5;entryDx=0;entryDy=0;" edge="1" parent="1" source="rr-AAdb_MnOpNJ91MEzJ-1" target="GAyMugdZw4S2Gn2cohql-12">
          <mxGeometry width="50" height="50" relative="1" as="geometry">
            <mxPoint x="290" y="330" as="sourcePoint" />
            <mxPoint x="340" y="280" as="targetPoint" />
          </mxGeometry>
        </mxCell>
        <mxCell id="GAyMugdZw4S2Gn2cohql-17" value="" style="endArrow=none;html=1;rounded=0;entryX=0.5;entryY=0.5;entryDx=0;entryDy=0;entryPerimeter=0;exitX=1;exitY=0.5;exitDx=0;exitDy=0;" edge="1" parent="1" source="rr-AAdb_MnOpNJ91MEzJ-19" target="rr-AAdb_MnOpNJ91MEzJ-2">
          <mxGeometry width="50" height="50" relative="1" as="geometry">
            <mxPoint x="290" y="330" as="sourcePoint" />
            <mxPoint x="340" y="280" as="targetPoint" />
          </mxGeometry>
        </mxCell>
      </root>
    </mxGraphModel>
  </diagram>
</mxfile>
